HIERARCHY
ROOT Hips
{
	OFFSET 0.000000 0.000000 0.000000
	CHANNELS 6 Xposition Yposition Zposition Xrotation Yrotation Zrotation
	JOINT LeftUpLeg_virtual
	{
		OFFSET 0.000000 0.000000 0.000000
		CHANNELS 3 Xrotation Yrotation Zrotation
		JOINT LeftUpLeg
		{
			OFFSET 10.205400 -3.823500 0.155100
			CHANNELS 3 Xrotation Yrotation Zrotation
			JOINT LeftLeg
			{
				OFFSET 0.708757 -12.982077 0.567790
				CHANNELS 3 Xrotation Yrotation Zrotation
				JOINT LeftFoot
				{
					OFFSET -0.708756 -10.717838 -2.184338
					CHANNELS 3 Xrotation Yrotation Zrotation
					JOINT LeftToeBase
					{
						OFFSET 0.108149 -7.191104 7.560241
						CHANNELS 3 Xrotation Yrotation Zrotation
						JOINT LeftToe_End
						{
							OFFSET 0.070230 0.081724 4.490308
							CHANNELS 3 Xrotation Yrotation Zrotation
							End Site
							{
								OFFSET 0 0 0
							}
						}
					}
				}
			}
		}
	}
	JOINT RightUpLeg_virtual
	{
		OFFSET 0.000000 0.000000 0.000000
		CHANNELS 3 Xrotation Yrotation Zrotation
		JOINT RightUpLeg
		{
			OFFSET -10.205400 -3.823500 0.005500
			CHANNELS 3 Xrotation Yrotation Zrotation
			JOINT RightLeg
			{
				OFFSET -0.708756 -12.982134 0.610632
				CHANNELS 3 Xrotation Yrotation Zrotation
				JOINT RightFoot
				{
					OFFSET 0.708754 -10.717769 -1.945823
					CHANNELS 3 Xrotation Yrotation Zrotation
					JOINT RightToeBase
					{
						OFFSET -0.108140 -7.191069 7.372968
						CHANNELS 3 Xrotation Yrotation Zrotation
						JOINT RightToe_End
						{
							OFFSET -0.070227 0.081735 4.479403
							CHANNELS 3 Xrotation Yrotation Zrotation
							End Site
							{
								OFFSET 0 0 0
							}
						}
					}
				}
			}
		}
	}
	JOINT Spine_virtual
	{
		OFFSET 0.000000 0.000000 0.000000
		CHANNELS 3 Xrotation Yrotation Zrotation
		JOINT Spine
		{
			OFFSET 0.000000 6.876099 0.125700
			CHANNELS 3 Xrotation Yrotation Zrotation
			JOINT Spine1
			{
				OFFSET 0.000000 5.730043 0.104720
				CHANNELS 3 Xrotation Yrotation Zrotation
				JOINT Spine1_split
				{
					OFFSET 0.000000 5.730043 0.104720
					CHANNELS 3 Xrotation Yrotation Zrotation
					JOINT Spine2
					{
						OFFSET 0.000000 5.730043 0.104720
						CHANNELS 3 Xrotation Yrotation Zrotation
						JOINT Neck_virtual
						{
							OFFSET 0.000000 0.000000 0.000000
							CHANNELS 3 Xrotation Yrotation Zrotation
							JOINT Neck
							{
								OFFSET 0.000000 10.314075 0.188496
								CHANNELS 3 Xrotation Yrotation Zrotation
								JOINT Head
								{
									OFFSET 0.000000 7.643700 -2.377400
									CHANNELS 3 Xrotation Yrotation Zrotation
									JOINT HeadTop_End
									{
										OFFSET 0.000000 43.788605 -13.619600
										CHANNELS 3 Xrotation Yrotation Zrotation
										End Site
										{
											OFFSET 0 0 0
										}
									}
								}
							}
						}
						JOINT LeftShoulder_virtual
						{
							OFFSET 0.000000 0.000000 0.000000
							CHANNELS 3 Xrotation Yrotation Zrotation
							JOINT LeftShoulder
							{
								OFFSET 2.196100 4.412489 0.087492
								CHANNELS 3 Xrotation Yrotation Zrotation
								JOINT LeftShoulder_split
								{
									OFFSET 2.196100 4.412489 0.087492
									CHANNELS 3 Xrotation Yrotation Zrotation
									JOINT LeftArm
									{
										OFFSET 8.771219 -2.981674 -0.026999
										CHANNELS 3 Xrotation Yrotation Zrotation
										JOINT LeftForeArm
										{
											OFFSET 8.512804 0.000000 -0.000000
											CHANNELS 3 Xrotation Yrotation Zrotation
											JOINT LeftHand
											{
												OFFSET 18.484802 0.000000 -0.000000
												CHANNELS 3 Xrotation Yrotation Zrotation
												End Site
												{
													OFFSET 0 0 0
												}
											}
										}
									}
								}
							}
						}
						JOINT RightShoulder_virtual
						{
							OFFSET 0.000000 0.000000 0.000000
							CHANNELS 3 Xrotation Yrotation Zrotation
							JOINT RightShoulder
							{
								OFFSET -2.196100 4.412496 0.070690
								CHANNELS 3 Xrotation Yrotation Zrotation
								JOINT RightShoulder_split
								{
									OFFSET -2.196100 4.412496 0.070690
									CHANNELS 3 Xrotation Yrotation Zrotation
									JOINT RightArm
									{
										OFFSET -8.771282 -2.981682 -0.094208
										CHANNELS 3 Xrotation Yrotation Zrotation
										JOINT RightForeArm
										{
											OFFSET -8.494598 0.000000 0.000000
											CHANNELS 3 Xrotation Yrotation Zrotation
											JOINT RightHand
											{
												OFFSET -18.483803 0.000000 0.000001
												CHANNELS 3 Xrotation Yrotation Zrotation
												End Site
												{
													OFFSET 0 0 0
												}
											}
										}
									}
								}
							}
						}
					}
				}
			}
		}
	}
}
MOTION
Frames: 11
Frame Time: 0.03333333
0.566402 46.101540 7.583272 0.000000 0.000000 0.000000 -91.917496 1.663188 4.176436 -10.071808 12.136596 15.510350 16.197879 5.427624 3.652083 32.854870 29.080019 -32.416802 -8.224280 -0.000006 0.000014 0.000000 0.000000 0.000000 -91.917496 1.663188 4.176436 -15.047620 -13.881199 -20.419598 25.589027 -3.938764 -7.667113 27.794811 -32.851086 35.755501 -3.042842 0.000005 0.000001 0.000000 0.000000 0.000000 -91.917496 1.663188 4.176436 4.434304 -0.733831 0.595185 5.862064 -1.735558 -1.283444 0.000000 0.000000 0.000000 0.000000 0.000000 0.000000 5.939527 -1.793967 -1.101335 -6.604892 -0.552704 1.640556 -11.607369 -2.627596 2.287790 0.000000 0.000000 0.000000 5.939527 -1.793967 -1.101335 0.874488 1.281659 -8.030366 0.000000 0.000000 0.000000 36.402084 -29.821692 -36.915629 0.000062 -86.066421 0.000087 0.000000 0.000000 0.000000 5.939527 -1.793967 -1.101335 1.034981 -2.343021 19.424776 0.000000 0.000000 0.000000 -34.810541 53.354071 51.928265 179.999923 77.240629 -179.999937 0.000000 0.000000 0.000000 
0.519968 46.059784 7.451577 0.000000 0.000000 0.000000 -92.610487 1.460861 4.260131 -9.116779 12.575410 15.371590 16.566521 5.441123 3.828225 32.391697 30.020696 -32.550561 -8.533200 0.000008 -0.000006 0.000000 0.000000 0.000000 -92.610487 1.460861 4.260131 -14.547210 -14.548829 -20.835338 25.274010 -3.634532 -7.148598 27.685998 -32.840489 35.295429 -2.926604 0.000007 0.000003 0.000000 0.000000 0.000000 -92.610487 1.460861 4.260131 4.272484 -0.742864 0.480384 5.662845 -1.787561 -1.408118 0.000000 0.000000 0.000000 0.000000 0.000000 0.000000 5.682632 -1.863436 -1.213449 -7.406064 -0.581397 1.811093 -13.802506 -2.716338 2.653907 0.000000 0.000000 0.000000 5.682632 -1.863436 -1.213449 0.833467 0.643753 -7.065529 0.000000 0.000000 0.000000 35.730895 -29.399952 -39.106060 -0.000025 -86.008747 -0.000003 0.000000 0.000000 0.000000 5.682632 -1.863436 -1.213449 1.050855 -2.047993 18.147321 0.000000 0.000000 0.000000 -39.666088 52.653382 55.025903 179.999923 79.735205 -179.999950 0.000000 0.000000 0.000000 
0.494748 45.992302 7.328239 0.000000 0.000000 0.000000 -92.969134 1.281602 4.225828 -8.109732 12.883759 15.212822 16.925101 5.362118 3.988742 32.140162 31.244567 -33.361895 -8.606500 0.000025 -0.000023 0.000000 0.000000 0.000000 -92.969134 1.281602 4.225828 -14.529423 -14.930088 -20.999772 25.287505 -3.462011 -6.931255 28.363506 -32.812734 35.017728 -3.401595 0.000053 -0.000010 0.000000 0.000000 0.000000 -92.969134 1.281602 4.225828 4.228570 -0.712713 0.410089 5.498812 -1.756072 -1.456301 0.000000 0.000000 0.000000 0.000000 0.000000 0.000000 5.557749 -1.836371 -1.256271 -7.364470 -0.607705 1.904431 -14.429604 -2.818836 2.924230 0.000000 0.000000 0.000000 5.557749 -1.836371 -1.256271 0.752565 0.149308 -6.556108 0.000000 0.000000 0.000000 35.791667 -29.405604 -39.728475 -0.000124 -85.965751 -0.000052 0.000000 0.000000 0.000000 5.557749 -1.836371 -1.256271 1.031391 -1.759342 17.391837 0.000000 0.000000 0.000000 -42.645143 51.582084 56.777085 179.999896 82.161705 -179.999923 0.000000 0.000000 0.000000 
0.476380 45.959930 7.269474 0.000000 0.000000 0.000000 -92.928576 1.135779 4.129640 -8.013372 12.764897 15.376842 17.598665 5.213930 4.144920 32.189418 31.275634 -33.509933 -8.483641 0.000013 -0.000000 0.000000 0.000000 0.000000 -92.928576 1.135779 4.129640 -14.684087 -14.985968 -20.930427 25.284831 -3.336683 -6.930431 29.183052 -32.782972 34.921330 -4.074028 0.000010 -0.000007 0.000000 0.000000 0.000000 -92.928576 1.135779 4.129640 4.265640 -0.671095 0.395586 5.555472 -1.676086 -1.446812 0.000000 0.000000 0.000000 0.000000 0.000000 0.000000 5.614040 -1.763748 -1.275981 -6.848938 -0.568000 1.851871 -12.821037 -2.678194 3.067696 0.000000 0.000000 0.000000 5.614040 -1.763748 -1.275981 0.758805 0.358500 -6.446022 0.000000 0.000000 0.000000 35.602030 -29.770626 -39.668735 0.000108 -85.806519 0.000175 0.000000 0.000000 0.000000 5.614040 -1.763748 -1.275981 1.056711 -1.497101 16.955236 0.000000 0.000000 0.000000 -42.526267 51.008686 56.077093 179.999773 83.699829 -179.999800 0.000000 0.000000 0.000000 
0.469272 45.982006 7.271698 0.000000 0.000000 0.000000 -92.554056 1.013544 4.015133 -8.490163 12.469813 15.470554 17.891530 5.130070 4.296749 32.488191 31.245076 -33.572869 -8.573216 0.000015 0.000009 0.000000 0.000000 0.000000 -92.554056 1.013544 4.015133 -15.160623 -14.870005 -20.730628 25.415913 -3.270849 -7.057556 30.142308 -32.764182 34.976296 -4.652815 0.000057 0.000002 0.000000 0.000000 0.000000 -92.554056 1.013544 4.015133 4.354825 -0.629468 0.414488 5.741229 -1.614428 -1.434077 0.000000 0.000000 0.000000 0.000000 0.000000 0.000000 5.800119 -1.697062 -1.268541 -5.813782 -0.457859 1.634098 -9.967919 -2.375745 3.043690 0.000000 0.000000 0.000000 5.800119 -1.697062 -1.268541 0.730859 0.865163 -6.431558 0.000000 0.000000 0.000000 35.443566 -30.401821 -39.212369 -0.000033 -85.600650 0.000036 0.000000 0.000000 0.000000 5.800119 -1.697062 -1.268541 1.005628 -1.118335 16.941325 0.000000 0.000000 0.000000 -37.746596 51.194515 51.832981 179.999882 83.449312 -179.999923 0.000000 0.000000 0.000000 
0.465176 46.026302 7.313019 0.000000 0.000000 0.000000 -92.061033 0.877397 3.871440 -9.288052 12.175562 15.586212 18.037759 5.062934 4.429335 32.840943 31.205345 -33.615032 -8.226468 0.000003 0.000012 0.000000 0.000000 0.000000 -92.061033 0.877397 3.871440 -15.715978 -14.583414 -20.468204 25.542939 -3.164996 -7.113633 31.100215 -32.718269 35.058798 -4.783295 0.000042 0.000003 0.000000 0.000000 0.000000 -92.061033 0.877397 3.871440 4.504910 -0.595027 0.442911 6.044136 -1.541179 -1.394171 0.000000 0.000000 0.000000 0.000000 0.000000 0.000000 6.102996 -1.620215 -1.248981 -4.187106 -0.298491 1.291640 -5.668992 -1.984165 2.855304 0.000000 0.000000 0.000000 6.102996 -1.620215 -1.248981 0.699585 1.457132 -6.484460 0.000000 0.000000 0.000000 35.346051 -31.215822 -38.384594 0.000154 -85.376067 0.000185 0.000000 0.000000 0.000000 6.102996 -1.620215 -1.248981 1.019964 -0.900255 17.096151 0.000000 0.000000 0.000000 -29.524780 51.442707 45.730039 179.999882 81.974025 -179.999937 0.000000 0.000000 0.000000 
0.464288 46.091606 7.359455 0.000000 0.000000 0.000000 -91.209711 0.765746 3.702783 -10.567042 11.765519 15.785855 18.260731 4.972845 4.440487 33.263595 31.117249 -33.636428 -8.056589 0.000014 -0.000012 0.000000 0.000000 0.000000 -91.209711 0.765746 3.702783 -16.492207 -14.042346 -20.017114 25.682724 -2.983487 -7.318866 31.943750 -32.647949 35.197901 -4.837698 0.000034 -0.000010 0.000000 0.000000 0.000000 -91.209711 0.765746 3.702783 4.696330 -0.581112 0.479940 6.317502 -1.487226 -1.313015 0.000000 0.000000 0.000000 0.000000 0.000000 0.000000 6.377038 -1.539990 -1.159532 -2.293740 -0.172215 0.902991 0.300021 -1.655930 2.504079 0.000000 0.000000 0.000000 6.377038 -1.539990 -1.159532 0.635050 1.992847 -6.568264 0.000000 0.000000 0.000000 35.446766 -32.103860 -37.441837 0.000032 -85.101111 0.000050 0.000000 0.000000 0.000000 6.377038 -1.539990 -1.159532 1.036211 -1.163086 17.835851 0.000000 0.000000 0.000000 -19.444114 51.293901 39.070724 179.999978 79.900031 179.999950 0.000000 0.000000 0.000000 
0.475273 46.170204 7.402036 0.000000 0.000000 0.000000 -89.347836 1.049801 3.491951 -13.094215 11.115391 15.982226 18.379291 4.716404 4.414805 33.783874 30.933394 -33.529235 -7.876537 0.000000 -0.000009 0.000000 0.000000 0.000000 -89.347836 1.049801 3.491951 -18.146433 -13.002160 -19.380568 26.138951 -3.021353 -7.779516 33.175793 -32.499782 35.658956 -5.509365 0.000062 -0.000004 0.000000 0.000000 0.000000 -89.347836 1.049801 3.491951 4.730364 -0.640753 0.527871 6.289444 -1.567883 -1.167573 0.000000 0.000000 0.000000 0.000000 0.000000 0.000000 6.350540 -1.576315 -0.935827 -0.256106 -0.072256 0.464678 7.419716 -1.419733 1.787856 0.000000 0.000000 0.000000 6.350540 -1.576315 -0.935827 0.579729 2.604934 -6.657009 0.000000 0.000000 0.000000 35.764459 -32.900813 -36.967091 0.000000 -84.677339 0.000060 0.000000 0.000000 0.000000 6.350540 -1.576315 -0.935827 1.163331 -1.813766 19.126090 0.000000 0.000000 0.000000 -9.234314 49.620303 32.858613 179.999950 75.958998 -179.999964 0.000000 0.000000 0.000000 
0.498237 46.198994 7.461334 0.000000 0.000000 0.000000 -87.130770 1.731086 3.258391 -16.117950 10.215392 16.117276 18.334716 4.307174 4.377694 34.362637 30.669646 -33.319135 -7.757107 0.000027 0.000013 0.000000 0.000000 0.000000 -87.130770 1.731086 3.258391 -20.116459 -11.860761 -18.750819 26.825023 -3.150761 -8.407685 34.552073 -32.311545 36.341999 -6.378585 0.000047 -0.000015 0.000000 0.000000 0.000000 -87.130770 1.731086 3.258391 4.701134 -0.730668 0.598844 5.925291 -1.755922 -0.992278 0.000000 0.000000 0.000000 0.000000 0.000000 0.000000 5.987768 -1.725080 -0.651913 1.689746 -0.061238 0.087984 15.499668 -1.480644 0.716352 0.000000 0.000000 0.000000 5.987768 -1.725080 -0.651913 0.558063 3.342691 -6.722489 0.000000 0.000000 0.000000 36.617317 -33.802558 -36.409724 0.000015 -84.168537 0.000031 0.000000 0.000000 0.000000 5.987768 -1.725080 -0.651913 1.359709 -2.681055 20.582840 0.000000 0.000000 0.000000 -1.154855 46.729863 29.111827 179.999964 71.567624 179.999991 0.000000 0.000000 0.000000 
0.517648 46.240906 7.522904 0.000000 0.000000 0.000000 -85.306372 2.307602 3.007154 -18.503249 9.534696 16.299929 18.351716 3.804553 4.296396 34.849517 30.323991 -33.131673 -8.083179 0.000006 -0.000015 0.000000 0.000000 0.000000 -85.306372 2.307602 3.007154 -21.687457 -11.107535 -18.390511 27.125451 -3.001783 -8.722531 36.080573 -32.195251 36.936020 -6.887221 0.000048 -0.000021 0.000000 0.000000 0.000000 -85.306372 2.307602 3.007154 4.632390 -0.831812 0.686245 5.702483 -1.954114 -0.805767 0.000000 0.000000 0.000000 0.000000 0.000000 0.000000 5.778761 -1.888326 -0.415217 3.381973 -0.099576 -0.261635 23.472922 -1.798468 -0.551735 0.000000 0.000000 0.000000 5.778761 -1.888326 -0.415217 0.559693 4.096908 -6.735415 0.000000 0.000000 0.000000 37.112342 -34.641278 -36.101422 0.000004 -83.640202 0.000011 0.000000 0.000000 0.000000 5.778761 -1.888326 -0.415217 1.536158 -3.492178 21.816302 0.000000 0.000000 0.000000 4.618854 43.679968 27.709710 179.999978 67.609638 -179.999991 0.000000 0.000000 0.000000 
0.527834 46.287750 7.613556 0.000000 0.000000 0.000000 -84.425680 2.506029 2.758380 -19.593928 9.137081 16.522731 18.378610 3.877261 4.138591 35.257450 29.596296 -33.005325 -9.145599 0.000014 -0.000001 0.000000 0.000000 0.000000 -84.425680 2.506029 2.758380 -22.657701 -10.920865 -18.272177 27.467961 -2.618817 -8.802908 37.263074 -32.145732 37.196240 -6.735551 0.000064 -0.000018 0.000000 0.000000 0.000000 -84.425680 2.506029 2.758380 4.547481 -0.938562 0.774305 5.754472 -2.159947 -0.617754 0.000000 0.000000 0.000000 0.000000 0.000000 0.000000 5.771696 -2.063555 -0.206639 4.387511 -0.183340 -0.452824 29.829133 -2.199499 -1.721619 0.000000 0.000000 0.000000 5.771696 -2.063555 -0.206639 0.572550 4.799242 -6.803340 0.000000 0.000000 0.000000 37.156291 -35.242875 -36.060544 -0.000043 -83.193753 -0.000074 0.000000 0.000000 0.000000 5.771696 -2.063555 -0.206639 1.705674 -4.153565 22.832639 0.000000 0.000000 0.000000 8.242649 41.367710 27.980481 179.999950 66.003581 -179.999991 0.000000 0.000000 0.000000 
